<svg width="155" height="33.30367051359419" viewBox="0 0 155 33.30367051359419" class="css-1j8o68f" xmlns="http://www.w3.org/2000/svg">
  <defs id="SvgjsDefs4468"></defs>
  <g id="SvgjsG4469" featurekey="v37d4h-0"
     transform="matrix(0.3499938584451719,0,0,0.3499938584451719,14.000760684970281,0.00035614342399692384)"
     fill="#002f7a">
    <path xmlns="http://www.w3.org/2000/svg" fill-rule="evenodd" clip-rule="evenodd"
          d="M75.754,91.754c-11.632,1.836-9.73-4.492-9.864-11.711l-0.686-14.15l-2.987,13.671  c-0.545,2.594-1.23,4.972,2.446,6.876c2.59,2.248-0.332,5.448-3.121,5.037c-8.518,0.277-7.284-5.376-6.548-9.385l0.479-5.79  c0.343-3.944,1.093-6.4,1.295-11.913l-1.15-2.988c-9.188-2.381-15.524-4.152-22.664-7.962l-5.114,0.679  c-2.311,0.342-1.692,3.066-1.966,4.834l-0.747,4.827l-4.228,10.961l-0.331,0.952c-0.279,0.754-0.211,3.745,0.886,5.304l2.237,4.561  c1.77,2.59,2.244,8.987-2.515,6.938l-3.541-1.49c-2.513-1.021-4.562-8.028-5.436-13.133l0.069-7.151  c-2.183-0.675-3.07,12.191-2.183,14.836l2.183,6.675c0.671,2.168-1.84,2.922-3.61,2.922c-4.154,0-5.992-4.218-6.876-7.76  l-0.675-2.646c-1.03-4.084-0.488-10.285,1.625-13.894l0.951-2.233c1.903-4.431-0.41-7.631-0.951-9.878  c-1.77-7.216-3.2-14.225,1.771-21.167l0.346-0.475c-0.144-0.542-1.576-1.695-2.46-4.417c-1.907-6.133-3.608-16.197-1.22-16.197  l1.562-0.077c4.021,0,2.854,16.607,7.627,15.522l34.574,0.343l6.056-1.64c2.25-0.606,4.152-2.035,6.122-3.264l3.94-2.447  c4.561,4.562,8.514,7.352,15.045,9.732c1.774,13.537-0.199,16.54-1.902,24.628l-0.688,3.269c-1.216,5.787-1.627,11.779-1.35,17.7  l0.134,2.789c-0.065,2.857,1.559,3.06,3.807,3.741C77.526,87.536,78.543,90.394,75.754,91.754L75.754,91.754L75.754,91.754z"></path>
    <path xmlns="http://www.w3.org/2000/svg" fill-rule="evenodd" clip-rule="evenodd"
          d="M83.062,9.073c1.901,1.297,4.286,3.608,6.191,5.646l2.388,2.592  c1.562,1.625,3.94,1.425,6.055,1.834l0.743,0.135c2.312,1.218,1.576,3.673,0.819,5.512l-0.477,1.153  c-2.183,5.247-8.645,5.657-13.208,3.198l-2.035-1.083H82.85l-1.422,0.952l-2.927,2.314c-5.92-2.591-10.751-5.714-14.637-9.866  l8.922-11.167l2.991-4.352l0.61-1.43l0.686-1.572c0.544-1.759,2.788-3.464,4.43-2.789c1.559,0.686,2.58,3.674,2.169,5.249  l-0.408,1.77L83.062,9.073L83.062,9.073L83.062,9.073z"></path>
  </g>
  <g id="SvgjsG4470" featurekey="UxBHKT-0"
     transform="matrix(1.2025591815786194,0,0,1.2025591815786194,53.34046819179953,0.13151105627436088)" fill="#65605f">
    <path
      d="M4.34 10.1 q0.38 -0.52 1.31 -0.93 t2.03 -0.41 q1.7 0 2.95 0.76 t1.91 2.07 t0.66 2.91 t-0.66 2.91 t-1.91 2.07 t-2.95 0.76 q-1.14 0 -2.01 -0.39 t-1.33 -0.99 l0 4.68 l-2.96 0 l0 -14.54 l2.96 0 l0 1.1 z M5.04 16.75 q0.82 0.87 2.2 0.87 q1.4 0 2.21 -0.87 t0.81 -2.25 q0 -1.34 -0.83 -2.22 t-2.19 -0.88 q-1.4 0 -2.21 0.83 t-0.81 2.27 q0 1.38 0.82 2.25 z M16.582 19.74 q-1.37 -0.54 -2.35 -1.83 t-0.98 -3.37 t0.99 -3.36 t2.37 -1.82 t2.62 -0.54 q1.44 0 2.74 0.64 t2.13 1.88 t0.87 2.94 q0 0.52 -0.02 0.9 t-0.04 0.48 l-8.68 0 q0.24 1.16 1.2 1.58 t1.8 0.42 q1.08 0 1.72 -0.39 t1.1 -0.89 l2.32 1.34 q-1.88 2.56 -5.14 2.56 q-1.28 0 -2.65 -0.54 z M17.192 12.05 q-0.78 0.61 -0.88 1.49 l5.5 0 q-0.06 -0.52 -0.4 -1 t-0.91 -0.79 t-1.29 -0.31 q-1.24 0 -2.02 0.61 z M29.223999999999997 16.08 q0 0.7 0.24 1.17 t1.12 0.47 q0.4 0 0.76 -0.04 l0 2.52 q-0.72 0.08 -1.34 0.08 q-1.28 0 -2.07 -0.21 t-1.23 -0.81 t-0.44 -1.72 l0 -6.1 l-1.34 0 l0 -2.62 l1.34 0 l0 -2.94 l2.96 0 l0 2.94 l2.2 0 l0 2.62 l-2.2 0 l0 4.64 z M31.875999999999998 4.880000000000001 l3 0 l0 15.12 l-3 0 l0 -15.12 z M38.318 19.49 q-1.37 -0.77 -2.17 -2.09 t-0.8 -2.88 q0 -1.54 0.8 -2.86 t2.17 -2.09 t2.99 -0.77 t3 0.77 t2.19 2.09 t0.81 2.86 q0 1.56 -0.81 2.88 t-2.19 2.09 t-3 0.77 t-2.99 -0.77 z M39.788 11.83 q-0.7 0.41 -1.1 1.12 t-0.4 1.57 q0 0.9 0.39 1.61 t1.08 1.12 t1.55 0.41 q0.84 0 1.53 -0.41 t1.09 -1.13 t0.4 -1.6 q0 -0.86 -0.4 -1.57 t-1.09 -1.12 t-1.53 -0.41 q-0.82 0 -1.52 0.41 z M46.059999999999995 9.04 l3.32 0 l2.56 5.38 l2.56 -5.38 l3.34 0 l-5.9 11.44 z M59.922 19.74 q-1.37 -0.54 -2.35 -1.83 t-0.98 -3.37 t0.99 -3.36 t2.37 -1.82 t2.62 -0.54 q1.44 0 2.74 0.64 t2.13 1.88 t0.87 2.94 q0 0.52 -0.02 0.9 t-0.04 0.48 l-8.68 0 q0.24 1.16 1.2 1.58 t1.8 0.42 q1.08 0 1.72 -0.39 t1.1 -0.89 l2.32 1.34 q-1.88 2.56 -5.14 2.56 q-1.28 0 -2.65 -0.54 z M60.532 12.05 q-0.78 0.61 -0.88 1.49 l5.5 0 q-0.06 -0.52 -0.4 -1 t-0.91 -0.79 t-1.29 -0.31 q-1.24 0 -2.02 0.61 z M74.104 11.87 q-0.86 0.21 -1.58 0.99 t-0.72 2.28 l0 4.86 l-2.98 0 l0 -11 l2.98 0 l0 1.46 q0.74 -0.98 1.81 -1.33 t1.95 -0.33 l0 2.92 q-0.6 -0.06 -1.46 0.15 z M74.856 18.54 l1.56 -2.08 q0.72 0.5 1.68 0.84 t1.88 0.34 q0.68 0 1.13 -0.28 t0.45 -0.7 t-0.51 -0.59 t-0.99 -0.24 t-0.62 -0.09 q-1.2 -0.2 -2.07 -0.48 t-1.58 -1 t-0.71 -1.98 q0 -2.08 1.51 -2.78 t3.03 -0.7 q1.3 0 2.4 0.38 t2.18 1.2 l-1.56 2.04 q-0.78 -0.46 -1.54 -0.74 t-1.58 -0.28 q-0.5 0 -0.97 0.22 t-0.47 0.6 q0 0.48 0.65 0.68 t1.43 0.3 q1.4 0.24 2.24 0.5 t1.49 0.97 t0.65 2.01 q0 1.72 -1.18 2.65 t-3.34 0.93 q-3 0 -5.16 -1.72 z"></path>
  </g>
</svg>
